<svg width="988" height="394" viewBox="0 0 988 394" fill="none" xmlns="http://www.w3.org/2000/svg">
<path fill-rule="evenodd" clip-rule="evenodd" d="M0 203.629L40.57 234.5C83.5266 265.371 164.667 332.258 248.193 306.532C329.333 285.952 412.86 183.049 494 105.872C577.527 33.8395 658.667 -12.4668 742.193 2.96864C823.333 13.2589 906.86 75.0007 947.43 105.872L988 136.743V394H947.43C906.86 394 823.333 394 742.193 394C658.667 394 577.527 394 494 394C412.86 394 329.333 394 248.193 394C164.667 394 83.5266 394 40.57 394H0V203.629Z" fill="#4DB6AC"/>
<path d="M738.738 360.347C752.032 360.347 762.809 349.691 762.809 336.546C762.809 323.401 752.032 312.745 738.738 312.745C725.445 312.745 714.668 323.401 714.668 336.546C714.668 349.691 725.445 360.347 738.738 360.347Z" fill="#009688"/>
<path d="M882.539 359.01C896.005 355.011 910.322 350.841 921.001 341.335C930.545 332.84 936.988 319.867 933.034 307.127C929.089 294.413 917.271 285.936 905.069 281.719C898.149 279.328 890.909 278.001 883.672 276.959C875.804 275.826 867.902 274.897 860.004 274.004C828.022 270.387 795.92 268.178 763.698 267.375C747.798 266.98 731.901 266.989 715.999 267.217C701.798 267.421 686.841 267.416 673.667 261.448C663.422 256.807 654.123 248.363 651.269 237.267C647.974 224.458 654.052 211.415 662.77 202.138C667.366 197.249 672.737 193.133 678.278 189.349C684.29 185.244 690.51 181.429 696.866 177.868C709.383 170.859 722.47 164.893 735.989 160.034C742.659 157.636 749.427 155.567 756.255 153.658C762.02 152.047 767.803 150.433 773.374 148.237C784.145 143.992 794.39 136.802 797.128 125.015C799.724 113.843 795.348 101.715 787.675 93.4156C778.799 83.8138 765.415 79.6047 752.584 78.9237C738.179 78.1591 724.106 81.7239 710.567 86.2482C696.126 91.0736 681.996 96.622 667.251 100.531C652.628 104.403 637.723 107.142 622.67 108.725C615.301 109.501 607.709 110.377 600.296 109.783C594.084 109.285 587.903 107.478 583.324 103.119C579.398 99.3803 577.059 94.2428 577.864 88.821C578.01 87.8363 579.522 88.255 579.377 89.2337C578.399 95.8335 582.936 101.915 588.526 105.03C594.988 108.631 602.851 108.635 610.044 108.224C625.643 107.292 641.136 105.078 656.362 101.603C671.324 98.2239 685.751 93.3934 700.163 88.2333C713.849 83.3326 727.842 78.5494 742.464 77.4879C755.152 76.5669 768.498 78.3946 779.551 84.9507C789.265 90.7127 796.409 100.322 798.685 111.349C800.909 122.124 797.829 132.969 789.58 140.488C781.039 148.273 769.329 151.602 758.415 154.667C744.573 158.555 731.028 163.1 717.917 169.001C704.628 174.966 691.883 182.051 679.823 190.178C668.182 198.044 656.693 207.942 653.012 221.975C651.297 228.511 651.613 235.444 654.483 241.618C657.034 247.108 661.237 251.726 666.132 255.288C677.812 263.786 692.533 265.531 706.641 265.704C722.487 265.899 738.333 265.371 754.184 265.628C786.487 266.152 818.724 268.096 850.895 271.46C858.956 272.304 867.007 273.237 875.048 274.258C882.281 275.177 889.538 276.09 896.648 277.722C909.292 280.624 921.595 286.204 929.454 296.804C932.942 301.398 935.102 306.843 935.705 312.557C936.255 318.52 934.779 324.493 932.053 329.798C926.018 341.538 914.715 349.006 902.711 353.912C896.281 356.54 889.612 358.53 882.956 360.507C881.987 360.795 881.572 359.297 882.539 359.01L882.539 359.01Z" fill="#F2F2F2"/>
<path d="M578.877 101.379C585.813 101.379 591.435 95.819 591.435 88.9607C591.435 82.1024 585.813 76.5426 578.877 76.5426C571.941 76.5426 566.318 82.1024 566.318 88.9607C566.318 95.819 571.941 101.379 578.877 101.379Z" fill="#F2F2F2"/>
<path d="M666.003 124.921C672.939 124.921 678.561 119.361 678.561 112.503C678.561 105.645 672.939 100.085 666.003 100.085C659.067 100.085 653.444 105.645 653.444 112.503C653.444 119.361 659.067 124.921 666.003 124.921Z" fill="#F2F2F2"/>
<path d="M739.785 77.8361C746.721 77.8361 752.343 72.2764 752.343 65.4181C752.343 58.5598 746.721 53 739.785 53C732.849 53 727.226 58.5598 727.226 65.4181C727.226 72.2764 732.849 77.8361 739.785 77.8361Z" fill="#F2F2F2"/>
<path d="M785.833 130.613C792.769 130.613 798.392 125.053 798.392 118.195C798.392 111.337 792.769 105.777 785.833 105.777C778.897 105.777 773.275 111.337 773.275 118.195C773.275 125.053 778.897 130.613 785.833 130.613Z" fill="#F2F2F2"/>
<path d="M723.563 191.668C730.499 191.668 736.122 186.109 736.122 179.25C736.122 172.392 730.499 166.832 723.563 166.832C716.627 166.832 711.005 172.392 711.005 179.25C711.005 186.109 716.627 191.668 723.563 191.668Z" fill="#F2F2F2"/>
<path d="M644.548 221.161C651.484 221.161 657.107 215.602 657.107 208.743C657.107 201.885 651.484 196.325 644.548 196.325C637.612 196.325 631.99 201.885 631.99 208.743C631.99 215.602 637.612 221.161 644.548 221.161Z" fill="#F2F2F2"/>
<path d="M728.273 267.212C735.209 267.212 740.831 261.652 740.831 254.794C740.831 247.935 735.209 242.376 728.273 242.376C721.337 242.376 715.714 247.935 715.714 254.794C715.714 261.652 721.337 267.212 728.273 267.212Z" fill="#F2F2F2"/>
<path d="M818.276 293.083C825.212 293.083 830.835 287.523 830.835 280.665C830.835 273.806 825.212 268.247 818.276 268.247C811.34 268.247 805.718 273.806 805.718 280.665C805.718 287.523 811.34 293.083 818.276 293.083Z" fill="#F2F2F2"/>
<path d="M923.455 287.391C930.391 287.391 936.014 281.831 936.014 274.973C936.014 268.115 930.391 262.555 923.455 262.555C916.519 262.555 910.897 268.115 910.897 274.973C910.897 281.831 916.519 287.391 923.455 287.391Z" fill="#F2F2F2"/>
<path d="M736.16 88.1862C698.54 88.449 667.738 118.678 667.204 155.873C667.199 156.217 667.197 158.631 667.197 161.789C667.197 166.42 669.057 170.861 672.369 174.136C675.68 177.41 680.171 179.25 684.854 179.25H684.854C687.176 179.25 689.474 178.797 691.619 177.918C693.763 177.039 695.711 175.75 697.352 174.126C698.993 172.502 700.294 170.574 701.18 168.453C702.067 166.332 702.523 164.058 702.521 161.763C702.519 159.614 702.518 158.127 702.518 158.036C702.517 152.288 704.029 146.638 706.906 141.642C709.782 136.647 713.925 132.478 718.925 129.546C723.926 126.614 729.612 125.019 735.425 124.919C741.237 124.819 746.976 126.217 752.077 128.975C757.178 131.733 761.464 135.757 764.515 140.65C767.566 145.544 769.277 151.138 769.478 156.883C769.679 162.628 768.364 168.326 765.663 173.416C762.962 178.507 758.967 182.814 754.071 185.914L754.077 185.922C754.077 185.922 728.945 201.92 721.283 223.867L721.29 223.868C719.942 228.364 719.26 233.03 719.263 237.719C719.263 239.646 719.377 256.512 719.599 270.201C719.676 274.924 721.629 279.428 725.034 282.741C728.44 286.054 733.027 287.91 737.804 287.908H737.804C740.204 287.908 742.581 287.439 744.798 286.527C747.014 285.615 749.026 284.279 750.718 282.596C752.41 280.912 753.749 278.914 754.657 276.717C755.566 274.52 756.026 272.167 756.011 269.793C755.934 257.257 755.892 242.659 755.892 241.599C755.892 228.123 769.04 214.696 779.839 205.94C792.275 195.857 801.225 182.117 804.819 166.617C805.614 163.426 806.053 160.158 806.127 156.872C806.127 147.81 804.313 138.838 800.791 130.472C797.269 122.106 792.107 114.512 785.603 108.127C779.1 101.743 771.383 96.6939 762.897 93.2715C754.411 89.8491 745.324 88.1208 736.16 88.1862V88.1862Z" fill="#009688"/>
<path d="M841.854 194.253C850.524 194.253 857.552 187.304 857.552 178.731C857.552 170.158 850.524 163.208 841.854 163.208C833.184 163.208 826.155 170.158 826.155 178.731C826.155 187.304 833.184 194.253 841.854 194.253Z" fill="#2F2E41"/>
<path d="M812.845 354.205H806.43L803.377 329.737H812.846L812.845 354.205Z" fill="#A0616A"/>
<path d="M801.847 352.392H814.219V360.095H794.057C794.057 359.083 794.259 358.082 794.65 357.147C795.042 356.213 795.615 355.364 796.339 354.648C797.062 353.933 797.921 353.366 798.866 352.979C799.811 352.591 800.824 352.392 801.847 352.392Z" fill="#2F2E41"/>
<path d="M862.556 354.205H856.141L853.089 329.737H862.558L862.556 354.205Z" fill="#A0616A"/>
<path d="M851.558 352.392H863.931V360.095H843.769C843.769 359.083 843.97 358.082 844.362 357.147C844.753 356.213 845.327 355.364 846.05 354.648C846.774 353.933 847.632 353.366 848.577 352.979C849.523 352.591 850.536 352.392 851.558 352.392V352.392Z" fill="#2F2E41"/>
<path d="M839.468 194.344C846.566 194.344 852.32 188.654 852.32 181.636C852.32 174.617 846.566 168.927 839.468 168.927C832.37 168.927 826.616 174.617 826.616 181.636C826.616 188.654 832.37 194.344 839.468 194.344Z" fill="#A0616A"/>
<path d="M847.128 235.342L852.879 222.277C854.276 219.212 854.676 215.794 854.025 212.495C853.373 209.195 851.702 206.177 849.242 203.857C848.737 203.363 848.2 202.901 847.636 202.475C844.798 200.28 841.301 199.084 837.699 199.076C835.277 199.085 832.885 199.611 830.687 200.618C830.498 200.7 830.315 200.788 830.127 200.876C829.766 201.047 829.41 201.233 829.065 201.425C826.812 202.704 824.895 204.488 823.468 206.635C822.041 208.781 821.144 211.229 820.849 213.781L818.311 234.809C817.673 236.459 794.9 296.066 802.864 341.573C802.949 342.059 803.189 342.505 803.548 342.847C803.908 343.189 804.369 343.408 804.863 343.472L812.937 344.559C813.527 344.638 814.125 344.494 814.612 344.155C815.098 343.816 815.436 343.308 815.559 342.732L829.107 278.877C829.191 278.481 829.408 278.123 829.722 277.862C830.035 277.602 830.429 277.453 830.839 277.439C831.248 277.425 831.651 277.548 831.982 277.787C832.313 278.026 832.553 278.368 832.665 278.758L851.806 345.909C851.943 346.397 852.237 346.827 852.645 347.134C853.052 347.44 853.55 347.606 854.062 347.606C854.214 347.605 854.367 347.591 854.517 347.565L864.381 345.687C864.954 345.581 865.467 345.267 865.818 344.806C866.17 344.346 866.334 343.772 866.28 343.198C864.831 327.215 857.128 247.154 847.128 235.342Z" fill="#2F2E41"/>
<path d="M789.521 192.212C789.431 192.967 789.511 193.733 789.753 194.455C789.996 195.177 790.395 195.837 790.924 196.39C791.452 196.942 792.097 197.374 792.812 197.653C793.528 197.933 794.296 198.054 795.064 198.008L802.248 215.079L807.683 207.114L800.027 192.124C799.864 190.854 799.235 189.687 798.259 188.844C797.284 188.002 796.03 187.543 794.735 187.553C793.44 187.564 792.194 188.044 791.233 188.903C790.272 189.761 789.662 190.939 789.521 192.212L789.521 192.212Z" fill="#A0616A"/>
<path d="M838.755 252.531C839.519 252.44 840.253 252.185 840.907 251.784C841.56 251.383 842.117 250.845 842.537 250.208C842.958 249.571 843.232 248.85 843.34 248.097C843.448 247.344 843.388 246.577 843.164 245.849L858.279 234.963L849.18 231.594L836.221 242.448C835.01 242.901 834.009 243.778 833.407 244.912C832.806 246.046 832.647 247.359 832.959 248.602C833.271 249.845 834.034 250.931 835.102 251.655C836.17 252.379 837.47 252.691 838.755 252.531V252.531Z" fill="#A0616A"/>
<path d="M814.115 226.46C813.535 226.46 812.957 226.403 812.389 226.292C811.014 226.033 809.724 225.444 808.634 224.576C807.544 223.709 806.686 222.589 806.137 221.316L796.072 209.181C795.859 208.925 795.704 208.626 795.618 208.306C795.531 207.985 795.515 207.65 795.57 207.323C795.625 206.995 795.75 206.683 795.937 206.408C796.124 206.132 796.368 205.899 796.653 205.725L803.814 201.342C804.078 201.18 804.373 201.071 804.68 201.022C804.987 200.974 805.3 200.985 805.603 201.057C805.905 201.129 806.19 201.259 806.441 201.44C806.692 201.621 806.905 201.85 807.066 202.113L814.16 213.669L827.745 203.741C828.827 203.181 830.076 203.023 831.266 203.298C832.455 203.573 833.504 204.262 834.222 205.239C834.94 206.216 835.279 207.416 835.176 208.619C835.074 209.822 834.537 210.949 833.663 211.793L820.104 224.023C818.511 225.585 816.358 226.461 814.115 226.46Z" fill="#2F2E41"/>
<path d="M850.823 244.711C850.805 244.711 850.786 244.711 850.768 244.71C850.438 244.702 850.113 244.626 849.814 244.486C849.516 244.346 849.251 244.146 849.035 243.898L842.669 236.554C842.452 236.304 842.291 236.011 842.198 235.695C842.104 235.379 842.079 235.047 842.124 234.72C842.17 234.394 842.285 234.081 842.462 233.802C842.639 233.523 842.873 233.284 843.151 233.101L855.072 225.243L844.272 212.404C843.644 211.369 843.413 210.144 843.623 208.955C843.832 207.765 844.468 206.689 845.413 205.924C846.358 205.16 847.55 204.757 848.771 204.789C849.992 204.821 851.16 205.287 852.062 206.101L865.188 218.784C866.221 219.717 867.01 220.884 867.486 222.185C867.963 223.486 868.113 224.882 867.924 226.253C867.734 227.624 867.212 228.929 866.4 230.056C865.589 231.183 864.513 232.098 863.265 232.724L852.537 243.98C852.317 244.21 852.051 244.394 851.756 244.52C851.462 244.646 851.144 244.711 850.823 244.711Z" fill="#2F2E41"/>
<path d="M836.2 217.65C836.098 217.65 835.995 217.644 835.894 217.631C835.451 217.578 835.032 217.4 834.688 217.118C834.344 216.837 834.089 216.464 833.953 216.043L829.169 201.54C829.049 201.174 829.067 200.777 829.22 200.422C829.374 200.068 829.652 199.781 830.003 199.613L830.158 199.541C830.299 199.474 830.438 199.409 830.58 199.346C832.811 198.323 835.239 197.79 837.698 197.782C840.891 197.788 844.012 198.715 846.679 200.45C847.036 200.686 847.286 201.05 847.374 201.466C847.462 201.882 847.382 202.315 847.15 202.672L838.176 216.574C837.966 216.904 837.674 217.176 837.328 217.365C836.983 217.553 836.594 217.651 836.2 217.65V217.65Z" fill="#E6E6E6"/>
<path d="M854.23 171.801C857.067 171.801 859.367 169.527 859.367 166.722C859.367 163.916 857.067 161.642 854.23 161.642C851.393 161.642 849.094 163.916 849.094 166.722C849.094 169.527 851.393 171.801 854.23 171.801Z" fill="#2F2E41"/>
<path d="M836.621 161.139C833.012 161.139 829.552 162.556 827 165.079C824.449 167.602 823.015 171.023 823.015 174.591V180.283H830.095L833.481 174.591L834.497 180.283H855.982L850.226 174.591C850.226 171.023 848.792 167.602 846.241 165.079C843.689 162.556 840.229 161.139 836.621 161.139V161.139Z" fill="#2F2E41"/>
<path d="M856.871 163.242C857.439 161.486 858.615 159.984 860.192 159C861.769 158.016 863.647 157.614 865.495 157.864C868.768 158.405 871.357 161.007 872.899 163.913C874.441 166.819 875.153 170.071 876.19 173.189C877.227 176.307 878.697 179.441 881.314 181.459C883.932 183.478 887.948 184.025 890.519 181.949C890.225 184.113 889.251 186.13 887.734 187.716C886.217 189.303 884.234 190.377 882.066 190.788C879.898 191.199 877.654 190.925 875.651 190.006C873.649 189.086 871.989 187.568 870.908 185.665C869.551 183.278 869.201 180.482 868.799 177.774C868.397 175.065 867.874 172.263 866.255 170.043C864.635 167.823 861.604 166.373 859.031 167.384L856.871 163.242Z" fill="#2F2E41"/>
<path d="M689.84 170.992C685.157 170.991 680.666 169.151 677.355 165.877C674.043 162.602 672.183 158.161 672.183 153.531C672.182 150.372 672.185 147.958 672.189 147.614C672.338 136.797 675.093 126.17 680.226 116.616C671.793 128.032 667.156 141.757 666.957 155.893C666.952 156.237 666.949 158.651 666.95 161.809C666.95 166.44 668.81 170.881 672.122 174.155C675.433 177.43 679.924 179.27 684.607 179.27V179.27C688.455 179.269 692.198 178.025 695.266 175.729C698.335 173.432 700.561 170.208 701.607 166.547C698.374 169.414 694.183 170.997 689.84 170.992V170.992Z" fill="#3F3D56"/>
<path d="M737.357 124.978C742.771 125.233 748.041 126.785 752.715 129.498C757.389 132.211 761.328 136.006 764.192 140.556C767.056 145.106 768.761 150.275 769.16 155.62C769.559 160.965 768.64 166.326 766.482 171.242C769.603 167.617 771.898 163.37 773.208 158.789C774.519 154.208 774.815 149.401 774.077 144.697C773.339 139.992 771.583 135.501 768.93 131.528C766.277 127.555 762.789 124.195 758.704 121.676C754.618 119.157 750.032 117.539 745.256 116.932C740.481 116.324 735.63 116.742 731.032 118.157C726.435 119.572 722.201 121.95 718.618 125.13C715.034 128.31 712.187 132.216 710.269 136.582C713.584 132.726 717.75 129.674 722.447 127.662C727.143 125.65 732.245 124.732 737.357 124.978V124.978Z" fill="#3F3D56"/>
<path d="M742.789 279.65C738.012 279.651 733.426 277.795 730.02 274.482C726.614 271.169 724.662 266.665 724.585 261.942C724.363 248.253 724.248 231.387 724.248 229.46C724.245 224.771 724.928 220.106 726.275 215.61L726.269 215.608C727.065 213.351 728.025 211.155 729.144 209.036C725.71 213.561 722.978 218.566 721.036 223.887L721.043 223.888C719.695 228.384 719.013 233.049 719.016 237.739C719.016 239.666 719.13 256.532 719.352 270.221C719.429 274.944 721.382 279.448 724.787 282.761C728.193 286.073 732.779 287.929 737.557 287.928V287.928C741.496 287.928 745.328 286.664 748.48 284.327C751.631 281.991 753.931 278.706 755.035 274.968C751.688 277.986 747.319 279.656 742.789 279.65V279.65Z" fill="#3F3D56"/>
<path d="M579.216 354.441L585.631 354.44L588.684 329.973L579.215 329.973L579.216 354.441Z" fill="#FFB8B8"/>
<path d="M598.003 360.33L577.841 360.331L577.841 352.628L590.213 352.628C592.279 352.628 594.261 353.439 595.722 354.884C597.183 356.328 598.003 358.287 598.003 360.33V360.33L598.003 360.33Z" fill="#2F2E41"/>
<path d="M556.192 354.441L562.607 354.44L565.659 329.973L556.19 329.973L556.192 354.441Z" fill="#FFB8B8"/>
<path d="M574.979 360.33L554.817 360.331L554.817 352.628L567.189 352.628C569.255 352.628 571.237 353.439 572.698 354.884C574.159 356.328 574.979 358.287 574.979 360.33V360.33L574.979 360.33Z" fill="#2F2E41"/>
<path d="M561.798 346.916L555.532 346.59C555.208 346.573 554.892 346.493 554.6 346.354C554.309 346.216 554.048 346.021 553.833 345.782C553.618 345.543 553.453 345.264 553.347 344.962C553.242 344.659 553.199 344.339 553.219 344.02L560.709 262.026L595.199 271.229L598.522 270.333L588.13 342.919C588.042 343.465 587.767 343.965 587.353 344.336C586.938 344.707 586.408 344.927 585.85 344.96L579.095 345.271C578.757 345.29 578.419 345.239 578.102 345.121C577.785 345.004 577.496 344.823 577.254 344.59C577.011 344.357 576.82 344.076 576.693 343.767C576.566 343.457 576.505 343.124 576.514 342.79L577.738 299.225C577.744 299.023 577.673 298.827 577.54 298.675C577.406 298.522 577.22 298.425 577.018 298.401C576.815 298.378 576.611 298.43 576.446 298.548C576.281 298.666 576.166 298.841 576.125 299.038L564.321 344.992C564.21 345.537 563.911 346.027 563.475 346.379C563.039 346.73 562.493 346.921 561.93 346.919C561.886 346.919 561.842 346.918 561.798 346.916Z" fill="#2F2E41"/>
<path d="M580.368 194.938C587.466 194.938 593.22 189.249 593.22 182.23C593.22 175.211 587.466 169.522 580.368 169.522C573.27 169.522 567.516 175.211 567.516 182.23C567.516 189.249 573.27 194.938 580.368 194.938Z" fill="#FFB8B8"/>
<path d="M558.97 219.567L560.383 249.715L560.894 260.684C560.914 261.161 561.078 261.622 561.365 262.007C561.651 262.392 562.048 262.683 562.503 262.844L595.645 274.716C595.913 274.814 596.196 274.863 596.482 274.861C596.809 274.862 597.132 274.799 597.433 274.674C597.734 274.549 598.007 274.366 598.234 274.134C598.462 273.903 598.641 273.629 598.759 273.328C598.877 273.027 598.933 272.706 598.923 272.383L597.564 218.175C597.475 213.727 595.819 209.45 592.882 206.08C589.945 202.71 585.912 200.459 581.476 199.715C581.156 199.666 580.83 199.618 580.503 199.575C577.753 199.237 574.961 199.5 572.325 200.344C569.688 201.188 567.27 202.593 565.242 204.46C563.142 206.37 561.491 208.713 560.407 211.324C559.324 213.934 558.833 216.748 558.97 219.567L558.97 219.567Z" fill="#CCCCCC"/>
<path d="M611.477 268.7C610.693 268.459 609.977 268.041 609.385 267.478C608.794 266.915 608.344 266.223 608.071 265.458C607.798 264.693 607.71 263.875 607.814 263.07C607.917 262.265 608.209 261.495 608.667 260.821L597.428 246.044L607.127 245.45L616.313 259.574C617.296 260.326 617.981 261.396 618.246 262.597C618.511 263.798 618.34 265.053 617.763 266.141C617.186 267.23 616.24 268.083 615.09 268.551C613.941 269.019 612.662 269.071 611.477 268.7H611.477Z" fill="#FFB8B8"/>
<path d="M603.574 258.147C603.277 258.028 603.006 257.851 602.778 257.627C602.549 257.404 602.368 257.137 602.245 256.844L585.312 216.954C584.98 216.173 584.807 215.335 584.802 214.487C584.798 213.64 584.962 212.8 585.286 212.016C585.61 211.231 586.087 210.518 586.69 209.916C587.293 209.314 588.01 208.835 588.8 208.507C589.59 208.179 590.438 208.009 591.295 208.005C592.152 208.001 593.001 208.164 593.794 208.485C594.587 208.806 595.308 209.278 595.917 209.875C596.525 210.471 597.009 211.181 597.34 211.962L614.272 251.853C614.522 252.444 614.525 253.11 614.28 253.703C614.034 254.297 613.561 254.77 612.964 255.019L605.446 258.138C605.151 258.262 604.833 258.327 604.511 258.328C604.19 258.33 603.872 258.268 603.574 258.147L603.574 258.147Z" fill="#CCCCCC"/>
<path d="M576.236 256.74L592.499 225.949C592.812 225.357 593.351 224.912 593.996 224.712C594.641 224.512 595.34 224.573 595.939 224.881L619.545 237.072C620.144 237.382 620.594 237.914 620.796 238.552C620.999 239.19 620.937 239.881 620.625 240.474L604.362 271.265C604.048 271.857 603.51 272.302 602.865 272.502C602.22 272.702 601.521 272.641 600.921 272.333L577.315 260.142C576.717 259.832 576.267 259.3 576.064 258.662C575.862 258.024 575.923 257.333 576.236 256.74Z" fill="#3F3D56"/>
<path d="M587.142 249.835C586.853 249.075 586.389 248.393 585.786 247.843C585.182 247.292 584.457 246.889 583.669 246.665C582.88 246.441 582.049 246.402 581.242 246.552C580.436 246.701 579.676 247.035 579.023 247.527L563.44 237.306L563.414 246.914L578.215 255.147C579.032 256.074 580.153 256.686 581.381 256.877C582.609 257.068 583.866 256.825 584.931 256.191C585.996 255.557 586.801 254.573 587.206 253.411C587.61 252.249 587.588 250.983 587.142 249.835V249.835Z" fill="#FFB8B8"/>
<path d="M567.441 244.833L554.706 234.858C553.328 234.401 552.083 233.62 551.078 232.582C550.073 231.544 549.338 230.281 548.935 228.9C548.532 227.519 548.475 226.063 548.767 224.655C549.059 223.247 549.692 221.931 550.612 220.818L562.175 205.834C562.978 204.863 564.109 204.211 565.359 203.996C566.609 203.781 567.895 204.018 568.983 204.664C570.071 205.309 570.887 206.321 571.283 207.513C571.679 208.705 571.627 209.998 571.138 211.155L561.99 225.954L575.435 232.259C575.747 232.406 576.025 232.616 576.249 232.877C576.473 233.138 576.639 233.442 576.736 233.771C576.832 234.099 576.857 234.445 576.808 234.783C576.76 235.122 576.639 235.447 576.454 235.736L571.027 244.229C570.843 244.516 570.601 244.761 570.316 244.949C570.03 245.137 569.708 245.264 569.37 245.321C569.356 245.324 569.343 245.326 569.329 245.328C568.997 245.377 568.658 245.359 568.333 245.274C568.008 245.189 567.705 245.039 567.441 244.833V244.833Z" fill="#CCCCCC"/>
<path d="M570.656 190.74C570.601 190.58 570.584 190.411 570.605 190.243C570.627 190.076 570.687 189.916 570.78 189.775C570.874 189.634 570.999 189.517 571.146 189.431C571.293 189.345 571.458 189.294 571.628 189.281C571.976 189.3 572.316 189.388 572.629 189.541C572.942 189.693 573.22 189.907 573.447 190.169C573.912 190.699 574.453 191.159 575.054 191.533C575.675 191.843 576.519 191.799 576.873 191.208C577.206 190.653 576.978 189.91 576.776 189.266C576.264 187.626 575.977 185.926 575.924 184.211C575.865 182.296 576.139 180.298 577.211 178.805C578.594 176.877 581.068 176.146 583.409 176.199C585.75 176.252 588.053 176.966 590.372 177.418C591.173 177.574 592.114 177.654 592.649 177.04C593.219 176.388 593.01 175.332 592.768 174.451C592.139 172.166 591.472 169.802 590.012 167.957C588.434 166.038 586.179 164.783 583.701 164.443C581.323 164.152 578.908 164.423 576.657 165.234C572.988 166.377 569.76 168.601 567.404 171.608C564.975 174.805 563.925 178.824 564.485 182.784C565.031 186.234 566.88 189.35 569.658 191.505L570.656 190.74Z" fill="#2F2E41"/>
<path d="M733.435 354.542C730.016 353.069 726.989 350.831 724.594 348.004C722.2 345.176 720.502 341.837 719.636 338.25C718.77 334.663 718.759 330.926 719.603 327.334C720.448 323.742 722.125 320.393 724.503 317.552C721.746 319.542 719.449 322.089 717.764 325.025C716.079 327.96 715.044 331.216 714.729 334.576C714.414 337.937 714.825 341.325 715.936 344.517C717.047 347.708 718.831 350.63 721.17 353.087C723.51 355.545 726.352 357.482 729.506 358.771C732.661 360.059 736.057 360.67 739.468 360.561C742.88 360.453 746.229 359.628 749.294 358.142C752.358 356.656 755.068 354.543 757.243 351.942C753.851 354.394 749.867 355.924 745.69 356.38C741.513 356.837 737.287 356.203 733.435 354.542V354.542Z" fill="#3F3D56"/>
</svg>
